<?xml version="1.0" standalone="no"?>
<!DOCTYPE svg PUBLIC "-//W3C//DTD SVG 20010904//EN"
 "http://www.w3.org/TR/2001/REC-SVG-20010904/DTD/svg10.dtd">
<svg version="1.0" xmlns="http://www.w3.org/2000/svg"
 width="1920.000000pt" height="1080.000000pt" viewBox="0 0 1920.000000 1080.000000"
 preserveAspectRatio="xMidYMid meet">

<g transform="translate(0.000000,1080.000000) scale(0.100000,-0.100000)"
fill="#000000" stroke="none">
<path d="M12080 5975 c0 -1257 3 -2285 7 -2285 3 0 49 29 102 64 431 289 776
707 975 1182 37 90 113 322 120 369 3 22 -16 -25 -43 -105 -64 -193 -159 -412
-193 -445 -6 -5 2 14 16 43 121 241 231 626 269 942 3 19 3 -3 1 -50 -2 -47
-13 -134 -24 -195 -23 -126 -25 -173 -4 -100 55 197 79 604 50 855 -40 344
-118 616 -262 905 -57 116 -153 280 -154 264 0 -4 21 -44 47 -90 79 -144 220
-455 209 -466 -2 -2 -18 34 -36 79 -81 208 -251 493 -413 696 -73 90 -102 125
-196 227 -25 28 -6 12 43 -35 96 -92 190 -201 279 -322 31 -43 60 -78 63 -78
8 0 -87 135 -163 230 -88 111 -296 318 -403 401 -85 66 -275 199 -285 199 -3
0 -5 -1028 -5 -2285z m375 1985 c21 -22 37 -40 34 -40 -3 0 -23 18 -44 40 -21
22 -37 40 -34 40 3 0 23 -18 44 -40z m341 -589 c-3 -5 1 -12 10 -15 8 -3 12
-11 9 -17 -5 -7 -14 -4 -26 7 -15 13 -17 19 -7 26 17 10 20 10 14 -1z m-21
-41 c3 -5 -3 -10 -15 -10 -12 0 -18 5 -15 10 3 6 10 10 15 10 5 0 12 -4 15
-10z m261 -415 c51 -111 104 -276 104 -327 0 -24 4 -48 10 -54 9 -9 27 -111
53 -294 14 -99 16 -454 3 -467 -5 -4 -11 -2 -13 5 -3 6 -9 12 -15 12 -6 0 -8
-6 -5 -13 3 -8 -1 -14 -8 -14 -18 0 -12 29 8 36 12 4 14 10 7 21 -7 10 -10 11
-10 3 0 -7 -5 -13 -11 -13 -7 0 -10 15 -7 39 2 22 -1 39 -6 38 -10 -2 -12 5
-15 45 0 12 -3 19 -6 17 -4 -4 -16 -74 -18 -106 0 -6 -7 -9 -15 -6 -11 5 -11
7 0 14 10 7 10 9 1 9 -9 0 -13 19 -15 58 l-1 57 -7 -45 c-5 -38 -7 -41 -12
-20 -4 14 -7 32 -7 40 0 8 -3 63 -7 122 -6 95 -5 108 10 114 9 3 16 12 16 20
0 9 8 6 23 -9 13 -12 22 -26 19 -32 -2 -5 6 3 19 18 17 22 24 25 30 15 7 -10
9 -9 9 5 0 11 4 15 12 11 7 -5 8 -3 3 7 -5 7 -11 45 -13 84 -1 38 -9 93 -17
120 -7 28 -17 70 -20 95 -4 25 -12 48 -18 52 -17 11 -21 -17 -8 -54 12 -33 15
-65 5 -56 -3 4 -7 12 -8 20 -14 71 -20 88 -28 88 -5 0 -6 -4 -3 -10 3 -5 2
-10 -3 -10 -5 0 -13 10 -16 23 l-7 22 -11 -23 c-9 -19 -17 -22 -37 -17 -14 4
-26 7 -27 8 -1 1 -9 22 -18 47 -9 25 -14 34 -11 20 3 -14 8 -45 11 -70 5 -40
4 -43 -9 -27 -13 16 -15 16 -21 2 -4 -11 -2 -14 6 -9 7 4 8 3 4 -5 -6 -9 -11
-9 -22 0 -12 10 -12 14 -2 20 11 7 11 9 0 9 -7 0 -10 5 -7 10 10 16 -1 11 -16
-7 -12 -14 -12 -16 0 -8 10 5 12 4 7 -4 -9 -13 -26 -5 -26 13 0 7 -7 21 -16
32 -15 18 -15 18 -5 -2 6 -12 7 -24 3 -28 -3 -4 0 -11 8 -16 12 -7 12 -12 3
-21 -10 -10 -17 -3 -32 32 -12 24 -21 52 -21 61 0 9 -5 20 -11 23 -6 4 -8 13
-5 20 2 7 2 16 -1 19 -10 9 -11 66 -2 66 5 0 8 -3 8 -7 -3 -19 2 -31 14 -36 8
-3 14 1 14 9 0 7 -5 10 -11 7 -6 -4 -5 1 3 10 7 9 9 17 3 17 -5 0 -13 8 -16
17 -6 15 -5 16 11 1 21 -18 53 -20 46 -2 -2 6 1 15 7 19 8 5 6 13 -6 26 -13
15 -14 19 -3 19 8 0 21 -19 30 -43 9 -23 24 -60 32 -82 20 -51 22 -31 2 25 -8
23 -13 46 -10 50 3 5 0 10 -7 12 -7 3 -8 9 -3 18 6 9 12 6 22 -14 20 -38 25
-28 9 17 -14 42 -26 58 -26 34 0 -9 -4 -19 -10 -22 -11 -7 -3 23 11 41 5 6 7
13 5 15 -10 10 -14 59 -5 54 5 -4 7 -10 4 -15 -3 -5 1 -12 9 -17 8 -4 16 -15
18 -23 2 -8 6 -17 9 -20 3 -3 14 -18 23 -35 10 -16 14 -21 11 -10 -30 89 -34
110 -20 91 17 -23 20 -14 5 14 -8 15 -6 22 8 32 11 7 18 21 16 31 -4 32 6 17
42 -58z m-83 20 c-3 -9 -8 -14 -10 -11 -3 3 -2 9 2 15 9 16 15 13 8 -4z m-233
-210 c0 -5 -5 -3 -10 5 -5 8 -10 20 -10 25 0 6 5 3 10 -5 5 -8 10 -19 10 -25z
m49 -148 c12 -40 21 -78 21 -84 0 -16 -45 -10 -46 7 -4 55 -4 56 -17 30 -13
-26 -37 -38 -37 -18 0 6 -3 8 -6 5 -4 -4 -1 -14 7 -24 8 -9 9 -14 2 -10 -7 4
-14 -1 -18 -14 -6 -19 -9 -20 -16 -7 -5 10 -20 15 -38 13 -22 -2 -28 1 -24 12
6 17 -26 15 -40 -2 -5 -6 -7 -1 -4 11 3 16 0 21 -12 19 -9 -1 -19 3 -23 9 -13
18 -9 26 9 19 11 -4 14 -3 9 5 -5 8 -2 10 8 6 18 -7 22 11 6 21 -6 4 -8 11 -4
16 4 6 11 5 20 -2 12 -10 16 -8 21 10 4 16 11 21 24 18 12 -3 20 2 24 14 4 11
11 17 16 14 5 -4 9 0 10 7 0 10 2 10 6 0 2 -6 9 -9 15 -6 6 4 14 0 20 -7 7
-11 9 -9 7 6 0 11 2 31 6 44 8 23 8 23 21 -8 7 -17 22 -63 33 -104z m11 78 c0
-8 -4 -15 -10 -15 -5 0 -7 7 -4 15 4 8 8 15 10 15 2 0 4 -7 4 -15z m-152 -20
c-3 -3 -9 2 -12 12 -6 14 -5 15 5 6 7 -7 10 -15 7 -18z m167 -43 c-4 -23 -3
-32 4 -27 7 4 8 0 4 -11 -5 -15 -7 -15 -15 0 -5 9 -6 26 -3 37 5 15 4 19 -4
15 -6 -4 -11 -1 -11 7 0 7 7 14 16 14 12 0 14 -7 9 -35z m-297 -54 c6 -18 13
-42 18 -52 5 -13 4 -17 -4 -13 -6 4 -12 2 -15 -5 -2 -7 -2 -2 0 10 2 13 0 21
-6 18 -5 -3 -11 -3 -14 1 -2 5 -2 2 -1 -4 7 -28 -25 -11 -35 18 -10 29 -9 31
10 26 12 -3 19 -3 16 0 -5 4 12 31 20 33 1 0 6 -15 11 -32z m553 -82 l-5 -31
-7 34 c-8 40 0 77 11 46 3 -9 4 -32 1 -49z m-80 37 c13 -16 12 -17 -3 -4 -10
7 -18 15 -18 17 0 8 8 3 21 -13z m-497 -38 c-4 -8 -8 -15 -10 -15 -2 0 -4 7
-4 15 0 8 4 15 10 15 5 0 7 -7 4 -15z m-273 -32 c-12 -20 -14 -14 -5 12 4 9 9
14 11 11 3 -2 0 -13 -6 -23z m786 5 c-3 -8 -6 -5 -6 6 -1 11 2 17 5 13 3 -3 4
-12 1 -19z m-765 -20 c-8 -8 -9 -4 -5 13 4 13 8 18 11 10 2 -7 -1 -18 -6 -23z
m776 -39 c-3 -8 -7 -3 -11 10 -4 17 -3 21 5 13 5 -5 8 -16 6 -23z m9 -71 c-3
-7 -5 -2 -5 12 0 14 2 19 5 13 2 -7 2 -19 0 -25z m152 -36 c1 -7 -3 -10 -9 -7
-5 3 -10 18 -9 33 0 24 1 25 9 7 5 -11 9 -26 9 -33z m-32 6 c-3 -8 -6 -5 -6 6
-1 11 2 17 5 13 3 -3 4 -12 1 -19z m-31 -23 c2 -13 -1 -14 -12 -4 -8 6 -14 19
-14 27 0 12 3 13 12 4 6 -6 13 -19 14 -27z m-79 3 c-3 -8 -6 -5 -6 6 -1 11 2
17 5 13 3 -3 4 -12 1 -19z m-180 -20 c-3 -7 -5 -2 -5 12 0 14 2 19 5 13 2 -7
2 -19 0 -25z m183 -2 c0 -2 -7 -9 -15 -16 -13 -11 -14 -10 -9 4 5 14 24 23 24
12z m-100 -16 c0 -5 -5 -10 -11 -10 -5 0 -7 5 -4 10 3 6 8 10 11 10 2 0 4 -4
4 -10z m215 1 c3 -5 1 -12 -5 -16 -5 -3 -10 1 -10 9 0 18 6 21 15 7z m-106
-230 c1 -101 -2 -181 -6 -177 -4 3 -6 29 -6 56 1 29 -3 50 -9 50 -7 0 -6 5 1
14 9 10 8 15 -3 19 -8 3 -17 1 -20 -6 -4 -12 -10 19 -7 37 1 5 -4 4 -12 -3
-12 -9 -16 -9 -20 1 -4 10 -8 10 -16 -2 -5 -8 -7 -18 -5 -22 3 -4 1 -8 -5 -8
-12 0 -24 37 -16 50 3 5 -2 10 -12 10 -14 0 -15 2 -4 9 8 5 11 16 7 27 -6 16
-7 16 -21 -2 -13 -17 -14 -12 -13 51 1 61 2 65 7 25 7 -56 31 -65 32 -12 1 51
6 73 19 86 8 8 11 7 8 -4 -2 -8 3 -14 10 -12 6 1 12 -4 12 -10 0 -7 5 -5 11 5
5 9 14 17 19 17 5 0 7 -8 4 -17 -3 -10 2 -5 12 12 16 27 18 28 25 10 4 -11 8
-103 8 -204z m-185 180 c5 -15 9 -123 7 -180 -1 -23 -2 -23 -20 -7 -11 10 -24
15 -30 12 -5 -3 -12 0 -14 6 -4 9 -6 8 -6 -3 -1 -9 -8 -16 -16 -16 -8 0 -15 7
-16 16 0 12 -3 11 -9 -4 -5 -11 -9 -14 -9 -7 -1 7 -6 10 -12 7 -6 -4 -19 1
-29 11 -40 40 -70 58 -55 35 3 -5 1 -12 -5 -16 -5 -3 -10 1 -10 9 0 9 -4 16
-10 16 -5 0 -9 12 -9 28 1 16 3 20 6 10 5 -20 5 -20 27 -12 8 3 12 12 10 19
-6 15 33 55 55 56 12 0 13 2 2 6 -10 4 -10 7 -1 13 15 9 50 -18 51 -40 0 -13
1 -13 6 0 11 31 26 42 34 28 5 -7 9 -17 9 -23 0 -5 -5 -3 -10 5 -5 8 -10 10
-10 4 0 -6 7 -17 15 -24 12 -10 15 -9 15 7 0 10 5 24 12 31 9 9 9 12 0 12 -7
0 -12 4 -12 8 0 15 30 9 34 -7z m-287 -63 c-3 -7 -5 -2 -5 12 0 14 2 19 5 13
2 -7 2 -19 0 -25z m70 -10 c-3 -8 -6 -5 -6 6 -1 11 2 17 5 13 3 -3 4 -12 1
-19z m-53 -6 c3 7 4 1 2 -14 -1 -15 1 -25 5 -22 5 3 9 -6 9 -19 0 -20 -4 -24
-20 -20 -11 3 -17 10 -13 17 3 6 0 6 -8 -1 -23 -22 -30 -14 -27 31 3 42 4 43
25 29 17 -11 22 -12 27 -1z m-357 -54 c-3 -7 -5 -2 -5 12 0 14 2 19 5 13 2 -7
2 -19 0 -25z m40 0 c-3 -7 -5 -2 -5 12 0 14 2 19 5 13 2 -7 2 -19 0 -25z m38
4 c-8 -8 -25 10 -19 20 4 6 9 5 15 -3 4 -7 6 -15 4 -17z m192 -14 c-3 -7 -5
-2 -5 12 0 14 2 19 5 13 2 -7 2 -19 0 -25z m860 -165 c-2 -37 -3 -9 -3 62 0
72 1 102 3 68 2 -34 2 -93 0 -130z m-672 147 c3 -5 -1 -10 -9 -10 -9 0 -16 5
-16 10 0 6 4 10 9 10 6 0 13 -4 16 -10z m315 -94 c0 -2 -7 -7 -16 -10 -8 -3
-12 -2 -9 4 6 10 25 14 25 6z m147 -48 c-3 -8 -6 -5 -6 6 -1 11 2 17 5 13 3
-3 4 -12 1 -19z m-27 -44 c0 -2 -7 -4 -15 -4 -8 0 -15 4 -15 10 0 5 7 7 15 4
8 -4 15 -8 15 -10z m33 -453 c-5 -21 -33 -37 -33 -20 0 19 21 50 30 44 4 -3 6
-14 3 -24z m-43 10 c0 -6 -4 -13 -10 -16 -5 -3 -10 1 -10 9 0 9 5 16 10 16 6
0 10 -4 10 -9z m-110 -731 c-6 -11 -13 -20 -16 -20 -2 0 0 9 6 20 6 11 13 20
16 20 2 0 0 -9 -6 -20z"/>
<path d="M12988 6933 c7 -3 16 -2 19 1 4 3 -2 6 -13 5 -11 0 -14 -3 -6 -6z"/>
<path d="M12810 6670 c0 -5 7 -7 15 -4 8 4 15 8 15 10 0 2 -7 4 -15 4 -8 0
-15 -4 -15 -10z"/>
<path d="M13170 5849 c0 -5 5 -7 10 -4 6 3 10 8 10 11 0 2 -4 4 -10 4 -5 0
-10 -5 -10 -11z"/>
<path d="M12760 6510 c0 -5 5 -10 11 -10 5 0 7 5 4 10 -3 6 -8 10 -11 10 -2 0
-4 -4 -4 -10z"/>
<path d="M12939 6123 c-13 -16 -12 -17 4 -4 9 7 17 15 17 17 0 8 -8 3 -21 -13z"/>
<path d="M12920 6006 c0 -2 7 -7 16 -10 8 -3 12 -2 9 4 -6 10 -25 14 -25 6z"/>
<path d="M12700 6126 c0 -2 7 -7 16 -10 8 -3 12 -2 9 4 -6 10 -25 14 -25 6z"/>
<path d="M12700 6017 c0 -10 8 -17 18 -17 9 0 13 4 7 8 -5 4 -13 11 -17 16 -5
5 -8 2 -8 -7z"/>
<path d="M9245 6983 c-155 -21 -331 -139 -395 -265 -16 -34 -30 -67 -30 -74 0
-7 -27 -27 -60 -45 -75 -40 -163 -132 -197 -206 -38 -83 -44 -205 -14 -296 26
-78 59 -126 138 -201 92 -87 137 -117 354 -238 235 -131 305 -177 388 -253
108 -101 152 -192 152 -318 1 -65 -4 -88 -29 -140 -31 -68 -104 -147 -161
-176 -218 -112 -462 -32 -641 209 -68 93 -135 219 -171 325 -16 44 -28 77 -29
74 0 -4 13 -127 30 -275 16 -148 30 -270 30 -272 0 -1 10 2 21 9 34 18 100 4
206 -45 150 -68 206 -81 363 -80 119 0 145 4 216 27 145 48 266 152 334 288
22 43 40 63 76 84 72 42 165 143 202 218 116 236 29 481 -238 669 -36 25 -153
92 -260 148 -318 166 -446 264 -506 385 -57 117 -31 259 63 346 63 58 122 82
218 87 232 12 401 -99 519 -342 30 -61 64 -144 76 -184 12 -40 23 -72 25 -70
1 2 -12 127 -30 278 -26 234 -33 272 -43 253 -19 -34 -64 -30 -220 22 -182 60
-271 74 -387 58z m-394 -631 c39 -81 146 -189 260 -264 46 -31 161 -97 254
-148 199 -109 277 -162 362 -247 135 -135 174 -307 100 -448 l-21 -40 -8 60
c-18 140 -68 236 -174 336 -92 86 -219 164 -503 309 -174 89 -321 212 -371
310 -44 87 -39 217 12 296 l32 49 13 -75 c7 -41 27 -103 44 -138z"/>
<path d="M6830 3170 c0 -5 5 -10 11 -10 5 0 7 5 4 10 -3 6 -8 10 -11 10 -2 0
-4 -4 -4 -10z"/>
<path d="M7058 3163 c7 -3 16 -2 19 1 4 3 -2 6 -13 5 -11 0 -14 -3 -6 -6z"/>
</g>
</svg>
